# Blender 4.1.1
# www.blender.org
mtllib Hammer.mtl
o Hammer
v 0.000000 2.144683 0.108738
v -0.021214 2.144683 0.106648
v 0.000000 4.895733 0.108738
v 0.021214 2.144683 0.106648
v 0.041612 2.144683 0.100461
v 0.021214 4.895733 0.106648
v 0.041612 4.895733 0.100461
v 0.060411 4.895733 0.090412
v 0.076889 4.895733 0.076889
v 0.060411 2.144683 0.090412
v 0.076889 2.144683 0.076889
v 0.090412 2.144683 0.060412
v 0.100461 2.144683 0.041612
v 0.090412 4.895733 0.060412
v 0.100461 4.895733 0.041612
v 0.106648 4.895733 0.021214
v 0.108738 4.895733 -0.000000
v 0.106648 2.144683 0.021214
v 0.108738 2.144683 -0.000000
v 0.106648 2.144683 -0.021214
v 0.100461 2.144683 -0.041612
v 0.106648 4.895733 -0.021214
v 0.100461 4.895733 -0.041612
v 0.090412 4.895733 -0.060411
v 0.076889 4.895733 -0.076889
v 0.090412 2.144683 -0.060411
v 0.076889 2.144683 -0.076889
v 0.060411 2.144683 -0.090412
v 0.041612 2.144683 -0.100461
v 0.060411 4.895733 -0.090412
v 0.041612 4.895733 -0.100461
v 0.021214 4.895733 -0.106648
v 0.000000 4.895733 -0.108738
v 0.021214 2.144683 -0.106648
v 0.000000 2.144683 -0.108738
v -0.021214 2.144683 -0.106648
v -0.041612 2.144683 -0.100461
v -0.021214 4.895733 -0.106648
v -0.041612 4.895733 -0.100461
v -0.060411 4.895733 -0.090412
v -0.076889 4.895733 -0.076889
v -0.060411 2.144683 -0.090412
v -0.076889 2.144683 -0.076889
v -0.090412 2.144683 -0.060411
v -0.100461 2.144683 -0.041612
v -0.090412 4.895733 -0.060411
v -0.100461 4.895733 -0.041612
v -0.106648 4.895733 -0.021214
v -0.108738 4.895733 -0.000000
v -0.106648 2.144683 -0.021214
v -0.108738 2.144683 -0.000000
v -0.106648 2.144683 0.021214
v -0.100461 2.144683 0.041612
v -0.106648 4.895733 0.021214
v -0.100461 4.895733 0.041612
v -0.090412 4.895733 0.060412
v -0.076889 4.895733 0.076889
v -0.090412 2.144683 0.060412
v -0.076889 2.144683 0.076889
v -0.060411 2.144683 0.090412
v -0.041612 2.144683 0.100461
v -0.060411 4.895733 0.090412
v -0.041612 4.895733 0.100461
v -0.021214 4.895733 0.106648
v 0.000000 6.862031 1.205051
v -0.195090 6.842816 1.205051
v 0.000000 6.862031 -1.205051
v 0.195090 6.842816 1.205051
v 0.382683 6.785911 1.205051
v 0.195090 6.842816 -1.205051
v 0.382683 6.785911 -1.205051
v 0.555570 6.693501 -1.205051
v 0.707107 6.569138 -1.205051
v 0.555570 6.693501 1.205051
v 0.707107 6.569138 1.205051
v 0.831470 6.417601 1.205051
v 0.923880 6.244715 1.205051
v 0.831470 6.417601 -1.205051
v 0.923880 6.244714 -1.205051
v 0.980785 6.057121 -1.205051
v 1.000000 5.862031 -1.205051
v 0.980785 6.057121 1.205051
v 1.000000 5.862031 1.205051
v 0.980785 5.666941 1.205051
v 0.923880 5.479348 1.205051
v 0.980785 5.666941 -1.205051
v 0.923880 5.479347 -1.205051
v 0.831470 5.306460 -1.205051
v 0.707107 5.154924 -1.205051
v 0.831470 5.306461 1.205051
v 0.707107 5.154924 1.205051
v 0.555570 5.030561 1.205051
v 0.382683 4.938151 1.205051
v 0.555570 5.030561 -1.205051
v 0.382683 4.938151 -1.205051
v 0.195090 4.881246 -1.205051
v 0.000000 4.862031 -1.205051
v 0.195090 4.881246 1.205051
v 0.000000 4.862031 1.205051
v -0.195090 4.881246 1.205051
v -0.382683 4.938151 1.205051
v -0.195090 4.881246 -1.205051
v -0.382683 4.938151 -1.205051
v -0.555570 5.030561 -1.205051
v -0.707107 5.154924 -1.205051
v -0.555570 5.030561 1.205051
v -0.707107 5.154924 1.205051
v -0.831470 5.306461 1.205051
v -0.923880 5.479348 1.205051
v -0.831470 5.306460 -1.205051
v -0.923880 5.479347 -1.205051
v -0.980785 5.666941 -1.205051
v -1.000000 5.862031 -1.205051
v -0.980785 5.666941 1.205051
v -1.000000 5.862031 1.205051
v -0.980785 6.057121 1.205051
v -0.923880 6.244715 1.205051
v -0.980785 6.057121 -1.205051
v -0.923880 6.244714 -1.205051
v -0.831470 6.417601 -1.205051
v -0.707107 6.569138 -1.205051
v -0.831470 6.417601 1.205051
v -0.707107 6.569138 1.205051
v -0.555570 6.693501 1.205051
v -0.382683 6.785911 1.205051
v -0.555570 6.693501 -1.205051
v -0.382683 6.785911 -1.205051
v -0.195090 6.842816 -1.205051
vn -0.0000 -0.0000 1.0000
vn -0.1951 -0.0000 0.9808
vn -0.0000 -1.0000 -0.0000
vn 0.1951 -0.0000 0.9808
vn 0.3827 -0.0000 0.9239
vn -0.0000 1.0000 -0.0000
vn 0.5556 -0.0000 0.8315
vn 0.7071 -0.0000 0.7071
vn 0.8315 -0.0000 0.5556
vn 0.9239 -0.0000 0.3827
vn 0.9808 -0.0000 0.1951
vn 1.0000 -0.0000 -0.0000
vn 0.9808 -0.0000 -0.1951
vn 0.9239 -0.0000 -0.3827
vn 0.8315 -0.0000 -0.5556
vn 0.7071 -0.0000 -0.7071
vn 0.5556 -0.0000 -0.8315
vn 0.3827 -0.0000 -0.9239
vn 0.1951 -0.0000 -0.9808
vn -0.0000 -0.0000 -1.0000
vn -0.1951 -0.0000 -0.9808
vn -0.3827 -0.0000 -0.9239
vn -0.5556 -0.0000 -0.8315
vn -0.7071 -0.0000 -0.7071
vn -0.8315 -0.0000 -0.5556
vn -0.9239 -0.0000 -0.3827
vn -0.9808 -0.0000 -0.1951
vn -1.0000 -0.0000 -0.0000
vn -0.9808 -0.0000 0.1951
vn -0.9239 -0.0000 0.3827
vn -0.8315 -0.0000 0.5556
vn -0.7071 -0.0000 0.7071
vn -0.5556 -0.0000 0.8315
vn -0.3827 -0.0000 0.9239
vn -0.1951 0.9808 -0.0000
vn 0.1951 0.9808 -0.0000
vn 0.3827 0.9239 -0.0000
vn 0.5556 0.8315 -0.0000
vn 0.7071 0.7071 -0.0000
vn 0.8315 0.5556 -0.0000
vn 0.9239 0.3827 -0.0000
vn 0.9808 0.1951 -0.0000
vn 0.9808 -0.1951 -0.0000
vn 0.9239 -0.3827 -0.0000
vn 0.8315 -0.5556 -0.0000
vn 0.7071 -0.7071 -0.0000
vn 0.5556 -0.8315 -0.0000
vn 0.3827 -0.9239 -0.0000
vn 0.1951 -0.9808 -0.0000
vn -0.1951 -0.9808 -0.0000
vn -0.3827 -0.9239 -0.0000
vn -0.5556 -0.8315 -0.0000
vn -0.7071 -0.7071 -0.0000
vn -0.8315 -0.5556 -0.0000
vn -0.9239 -0.3827 -0.0000
vn -0.9808 -0.1951 -0.0000
vn -0.9808 0.1951 -0.0000
vn -0.9239 0.3827 -0.0000
vn -0.8315 0.5556 -0.0000
vn -0.7071 0.7071 -0.0000
vn -0.5556 0.8315 -0.0000
vn -0.3827 0.9239 -0.0000
vn 0.0001 -1.0000 -0.0000
vn -0.0001 -1.0000 -0.0000
vn -0.0001 1.0000 -0.0000
vn 0.0001 1.0000 -0.0000
vn -0.0002 1.0000 -0.0000
vn 0.0002 1.0000 -0.0000
vt 0.805128 0.461992
vt 0.801947 0.007592
vt 0.805128 0.007592
vt 0.744107 0.511153
vt 0.728791 0.492491
vt 0.747453 0.477176
vt 0.808308 0.461992
vt 0.808308 0.007592
vt 0.811489 0.461992
vt 0.811489 0.007592
vt 0.747453 0.560314
vt 0.728791 0.544999
vt 0.744107 0.526337
vt 0.814670 0.461992
vt 0.814670 0.007592
vt 0.817850 0.461992
vt 0.817850 0.007592
vt 0.821031 0.461992
vt 0.821031 0.007592
vt 0.824212 0.461992
vt 0.824212 0.007592
vt 0.827392 0.461992
vt 0.827392 0.007592
vt 0.830573 0.461992
vt 0.830573 0.007592
vt 0.731972 0.461992
vt 0.728791 0.007592
vt 0.731972 0.007592
vt 0.735153 0.461992
vt 0.735153 0.007592
vt 0.738333 0.461992
vt 0.738333 0.007592
vt 0.741514 0.461992
vt 0.741514 0.007592
vt 0.744695 0.461992
vt 0.744695 0.007592
vt 0.747875 0.461992
vt 0.747875 0.007592
vt 0.751056 0.461992
vt 0.751056 0.007592
vt 0.754237 0.461992
vt 0.754237 0.007592
vt 0.757417 0.461992
vt 0.757417 0.007592
vt 0.760598 0.461992
vt 0.760598 0.007592
vt 0.763779 0.461992
vt 0.763779 0.007592
vt 0.766959 0.461992
vt 0.766959 0.007592
vt 0.770140 0.461992
vt 0.770140 0.007592
vt 0.773321 0.461992
vt 0.773321 0.007592
vt 0.776502 0.461992
vt 0.776502 0.007592
vt 0.779682 0.461992
vt 0.779682 0.007592
vt 0.782863 0.461992
vt 0.782863 0.007592
vt 0.786044 0.461992
vt 0.786044 0.007592
vt 0.789224 0.461992
vt 0.789224 0.007592
vt 0.792405 0.461992
vt 0.792405 0.007592
vt 0.795586 0.461992
vt 0.795586 0.007592
vt 0.798766 0.461992
vt 0.798766 0.007592
vt 0.801947 0.461992
vt 0.602945 0.641710
vt 0.483368 0.629932
vt 0.418920 0.417474
vt 0.007592 0.253796
vt 0.385955 0.223020
vt 0.385955 0.253796
vt 0.007592 0.284571
vt 0.385955 0.284571
vt 0.007592 0.315347
vt 0.385955 0.315347
vt 0.541986 0.007592
vt 0.713608 0.148439
vt 0.572761 0.320061
vt 0.007592 0.346123
vt 0.385955 0.346123
vt 0.007592 0.376898
vt 0.385955 0.376898
vt 0.007592 0.407673
vt 0.385955 0.407673
vt 0.385955 0.438449
vt 0.385955 0.469224
vt 0.007592 0.438449
vt 0.007592 0.500000
vt 0.385955 0.500000
vt 0.007592 0.530775
vt 0.385955 0.530775
vt 0.385955 0.561551
vt 0.385955 0.592327
vt 0.007592 0.561551
vt 0.385955 0.623102
vt 0.007592 0.592327
vt 0.007592 0.653878
vt 0.385955 0.653878
vt 0.007592 0.684653
vt 0.385955 0.684653
vt 0.007592 0.715429
vt 0.385955 0.715429
vt 0.007592 0.746204
vt 0.385955 0.746204
vt 0.007592 0.776980
vt 0.385955 0.776980
vt 0.007592 0.807755
vt 0.385955 0.807755
vt 0.007592 0.838531
vt 0.385955 0.838531
vt 0.007592 0.869306
vt 0.385955 0.869306
vt 0.007592 0.900082
vt 0.385955 0.900082
vt 0.007592 0.930857
vt 0.385955 0.930857
vt 0.007592 0.961633
vt 0.385955 0.961633
vt 0.007592 0.992408
vt 0.385955 0.992408
vt 0.007592 0.038367
vt 0.385955 0.007592
vt 0.385955 0.038367
vt 0.007592 0.069143
vt 0.385955 0.069143
vt 0.007592 0.099918
vt 0.385955 0.099918
vt 0.007592 0.130694
vt 0.385955 0.130694
vt 0.007592 0.161469
vt 0.385955 0.161469
vt 0.007592 0.192245
vt 0.385955 0.192245
vt 0.007592 0.223020
vt 0.750735 0.477829
vt 0.758976 0.483335
vt 0.753827 0.479109
vt 0.756610 0.480969
vt 0.760835 0.486117
vt 0.762116 0.489209
vt 0.762769 0.492491
vt 0.762769 0.495838
vt 0.762116 0.499120
vt 0.760835 0.502212
vt 0.758976 0.504994
vt 0.756610 0.507360
vt 0.753827 0.509220
vt 0.750735 0.510500
vt 0.747453 0.511153
vt 0.740825 0.510500
vt 0.732584 0.504994
vt 0.737733 0.509220
vt 0.734950 0.507360
vt 0.730725 0.502212
vt 0.729444 0.499120
vt 0.728791 0.495838
vt 0.729444 0.489209
vt 0.730725 0.486117
vt 0.732584 0.483335
vt 0.734950 0.480969
vt 0.737733 0.479109
vt 0.740825 0.477829
vt 0.744107 0.477176
vt 0.744107 0.560314
vt 0.740825 0.559661
vt 0.737733 0.558381
vt 0.734951 0.556521
vt 0.732584 0.554155
vt 0.730725 0.551373
vt 0.729444 0.548281
vt 0.728791 0.541652
vt 0.732584 0.532496
vt 0.729444 0.538370
vt 0.730725 0.535278
vt 0.734950 0.530130
vt 0.737733 0.528270
vt 0.740825 0.526990
vt 0.747453 0.526337
vt 0.750735 0.526990
vt 0.753827 0.528270
vt 0.756610 0.530129
vt 0.758976 0.532496
vt 0.760835 0.535278
vt 0.762116 0.538370
vt 0.762769 0.541652
vt 0.762769 0.544998
vt 0.762116 0.548281
vt 0.760835 0.551372
vt 0.758976 0.554155
vt 0.756610 0.556521
vt 0.753827 0.558380
vt 0.750736 0.559661
vt 0.728791 0.461992
vt 0.436018 0.391885
vt 0.511801 0.341249
vt 0.457780 0.370124
vt 0.483368 0.353026
vt 0.541986 0.335245
vt 0.631378 0.353026
vt 0.572761 0.335245
vt 0.602945 0.341249
vt 0.656967 0.370124
vt 0.678729 0.391885
vt 0.695826 0.417474
vt 0.707604 0.445907
vt 0.713608 0.476091
vt 0.713608 0.506867
vt 0.707604 0.537051
vt 0.695826 0.565484
vt 0.678729 0.591073
vt 0.656967 0.612834
vt 0.631378 0.629932
vt 0.572761 0.647713
vt 0.541985 0.647713
vt 0.511801 0.641710
vt 0.457780 0.612834
vt 0.436018 0.591073
vt 0.418920 0.565484
vt 0.407143 0.537051
vt 0.401139 0.506867
vt 0.401139 0.476091
vt 0.407143 0.445907
vt 0.541985 0.320061
vt 0.511801 0.314057
vt 0.483368 0.302280
vt 0.457780 0.285182
vt 0.436018 0.263420
vt 0.418920 0.237831
vt 0.407143 0.209398
vt 0.401139 0.179214
vt 0.401139 0.148439
vt 0.407143 0.118254
vt 0.418920 0.089822
vt 0.436018 0.064233
vt 0.457780 0.042471
vt 0.483369 0.025373
vt 0.511801 0.013596
vt 0.572761 0.007592
vt 0.602945 0.013596
vt 0.631378 0.025373
vt 0.656967 0.042471
vt 0.678729 0.064233
vt 0.695827 0.089822
vt 0.707604 0.118254
vt 0.713608 0.179214
vt 0.678729 0.263420
vt 0.707604 0.209398
vt 0.695826 0.237831
vt 0.656967 0.285182
vt 0.631378 0.302280
vt 0.602945 0.314057
vt 0.007592 0.469224
vt 0.007592 0.623102
vt 0.007592 0.007592
s 1
usemtl マテリアル
f 3/1/1 2/2/2 1/3/1
f 36/4/3 20/5/3 4/6/3
f 6/7/4 1/3/1 4/8/4
f 7/9/5 4/8/4 5/10/5
f 63/11/6 15/12/6 31/13/6
f 8/14/7 5/10/5 10/15/7
f 9/16/8 10/15/7 11/17/8
f 14/18/9 11/17/8 12/19/9
f 15/20/10 12/19/9 13/21/10
f 16/22/11 13/21/10 18/23/11
f 17/24/12 18/23/11 19/25/12
f 22/26/13 19/27/12 20/28/13
f 23/29/14 20/28/13 21/30/14
f 24/31/15 21/30/14 26/32/15
f 25/33/16 26/32/15 27/34/16
f 30/35/17 27/34/16 28/36/17
f 31/37/18 28/36/17 29/38/18
f 32/39/19 29/38/18 34/40/19
f 33/41/20 34/40/19 35/42/20
f 38/43/21 35/42/20 36/44/21
f 39/45/22 36/44/21 37/46/22
f 40/47/23 37/46/22 42/48/23
f 41/49/24 42/48/23 43/50/24
f 46/51/25 43/50/24 44/52/25
f 47/53/26 44/52/25 45/54/26
f 48/55/27 45/54/26 50/56/27
f 49/57/28 50/56/27 51/58/28
f 54/59/29 51/58/28 52/60/29
f 55/61/30 52/60/29 53/62/30
f 56/63/31 53/62/30 58/64/31
f 57/65/32 58/64/31 59/66/32
f 62/67/33 59/66/32 60/68/33
f 63/69/34 60/68/33 61/70/34
f 64/71/2 61/70/34 2/2/2
f 92/72/1 84/73/1 68/74/1
f 67/75/6 66/76/35 65/77/6
f 70/78/36 65/77/6 68/79/36
f 71/80/37 68/79/36 69/81/37
f 95/82/20 111/83/20 127/84/20
f 72/85/38 69/81/37 74/86/38
f 73/87/39 74/86/38 75/88/39
f 78/89/40 75/88/39 76/90/40
f 77/91/41 78/89/40 76/90/40
f 82/92/42 79/93/41 77/91/41
f 81/94/12 82/92/42 83/95/12
f 86/96/43 83/95/12 84/97/43
f 85/98/44 86/96/43 84/97/43
f 90/99/45 87/100/44 85/98/44
f 91/101/46 88/102/45 90/99/45
f 94/103/47 91/101/46 92/104/47
f 95/105/48 92/104/47 93/106/48
f 96/107/49 93/106/48 98/108/49
f 97/109/3 98/108/49 99/110/3
f 102/111/50 99/110/3 100/112/50
f 103/113/51 100/112/50 101/114/51
f 104/115/52 101/114/51 106/116/52
f 105/117/53 106/116/52 107/118/53
f 110/119/54 107/118/53 108/120/54
f 111/121/55 108/120/54 109/122/55
f 112/123/56 109/122/55 114/124/56
f 113/125/28 114/124/56 115/126/28
f 118/127/57 115/128/28 116/129/57
f 119/130/58 116/129/57 117/131/58
f 120/132/59 117/131/58 122/133/59
f 121/134/60 122/133/59 123/135/60
f 126/136/61 123/135/60 124/137/61
f 127/138/62 124/137/61 125/139/62
f 128/140/35 125/139/62 66/76/35
f 3/1/1 64/71/2 2/2/2
f 4/6/3 1/141/3 60/142/3
f 1/141/3 2/143/3 60/142/3
f 2/143/3 61/144/3 60/142/3
f 60/142/3 59/145/63 58/146/3
f 58/146/3 53/147/63 52/148/3
f 52/148/3 51/149/3 50/150/3
f 50/150/3 45/151/64 44/152/3
f 44/152/3 43/153/63 42/154/3
f 42/154/3 37/155/3 36/4/3
f 36/4/3 35/156/3 28/157/3
f 35/156/3 34/158/3 28/157/3
f 34/158/3 29/159/3 28/157/3
f 28/157/3 27/160/64 26/161/3
f 26/161/3 21/162/63 20/5/3
f 20/5/3 19/163/3 18/164/3
f 18/164/3 13/165/64 12/166/3
f 12/166/3 11/167/64 10/168/3
f 10/168/3 5/169/3 4/6/3
f 60/142/3 58/146/3 52/148/3
f 52/148/3 50/150/3 44/152/3
f 44/152/3 42/154/3 36/4/3
f 28/157/3 26/161/3 20/5/3
f 20/5/3 18/164/3 4/6/3
f 18/164/3 12/166/3 4/6/3
f 12/166/3 10/168/3 4/6/3
f 4/6/3 60/142/3 52/148/3
f 52/148/3 44/152/3 36/4/3
f 36/4/3 28/157/3 20/5/3
f 4/6/3 52/148/3 36/4/3
f 6/7/4 3/1/1 1/3/1
f 7/9/5 6/7/4 4/8/4
f 63/11/6 64/170/6 3/171/6
f 3/171/6 6/172/6 7/173/6
f 7/173/6 8/174/65 15/12/6
f 8/174/65 9/175/6 15/12/6
f 9/175/6 14/176/6 15/12/6
f 15/12/6 16/177/66 23/178/6
f 16/177/66 17/179/6 23/178/6
f 17/179/6 22/180/67 23/178/6
f 23/178/6 24/181/66 31/13/6
f 24/181/66 25/182/65 31/13/6
f 25/182/65 30/183/6 31/13/6
f 31/13/6 32/184/6 33/185/6
f 33/185/6 38/186/6 39/187/6
f 39/187/6 40/188/6 41/189/6
f 41/189/6 46/190/65 39/187/6
f 46/190/65 47/191/6 39/187/6
f 47/191/6 48/192/68 49/193/6
f 49/193/6 54/194/67 55/195/6
f 55/195/6 56/196/6 57/197/6
f 57/197/6 62/198/6 55/195/6
f 62/198/6 63/11/6 55/195/6
f 63/11/6 3/171/6 7/173/6
f 31/13/6 33/185/6 39/187/6
f 47/191/6 49/193/6 63/11/6
f 49/193/6 55/195/6 63/11/6
f 63/11/6 7/173/6 15/12/6
f 15/12/6 23/178/6 31/13/6
f 31/13/6 39/187/6 63/11/6
f 39/187/6 47/191/6 63/11/6
f 8/14/7 7/9/5 5/10/5
f 9/16/8 8/14/7 10/15/7
f 14/18/9 9/16/8 11/17/8
f 15/20/10 14/18/9 12/19/9
f 16/22/11 15/20/10 13/21/10
f 17/24/12 16/22/11 18/23/11
f 22/26/13 17/199/12 19/27/12
f 23/29/14 22/26/13 20/28/13
f 24/31/15 23/29/14 21/30/14
f 25/33/16 24/31/15 26/32/15
f 30/35/17 25/33/16 27/34/16
f 31/37/18 30/35/17 28/36/17
f 32/39/19 31/37/18 29/38/18
f 33/41/20 32/39/19 34/40/19
f 38/43/21 33/41/20 35/42/20
f 39/45/22 38/43/21 36/44/21
f 40/47/23 39/45/22 37/46/22
f 41/49/24 40/47/23 42/48/23
f 46/51/25 41/49/24 43/50/24
f 47/53/26 46/51/25 44/52/25
f 48/55/27 47/53/26 45/54/26
f 49/57/28 48/55/27 50/56/27
f 54/59/29 49/57/28 51/58/28
f 55/61/30 54/59/29 52/60/29
f 56/63/31 55/61/30 53/62/30
f 57/65/32 56/63/31 58/64/31
f 62/67/33 57/65/32 59/66/32
f 63/69/34 62/67/33 60/68/33
f 64/71/2 63/69/34 61/70/34
f 68/74/1 65/200/1 124/201/1
f 65/200/1 66/202/1 124/201/1
f 66/202/1 125/203/1 124/201/1
f 124/201/1 123/204/1 116/205/1
f 123/204/1 122/206/1 116/205/1
f 122/206/1 117/207/1 116/205/1
f 116/205/1 115/208/1 114/209/1
f 114/209/1 109/210/1 116/205/1
f 109/210/1 108/211/1 116/205/1
f 108/211/1 107/212/1 106/213/1
f 106/213/1 101/214/1 100/215/1
f 100/215/1 99/216/1 92/72/1
f 99/216/1 98/217/1 92/72/1
f 98/217/1 93/218/1 92/72/1
f 92/72/1 91/219/1 84/73/1
f 91/219/1 90/220/1 84/73/1
f 90/220/1 85/221/1 84/73/1
f 84/73/1 83/222/1 82/223/1
f 82/223/1 77/224/1 76/225/1
f 76/225/1 75/226/1 74/227/1
f 74/227/1 69/228/1 68/74/1
f 108/211/1 106/213/1 116/205/1
f 106/213/1 100/215/1 116/205/1
f 84/73/1 82/223/1 76/225/1
f 76/225/1 74/227/1 84/73/1
f 74/227/1 68/74/1 84/73/1
f 68/74/1 124/201/1 100/215/1
f 124/201/1 116/205/1 100/215/1
f 100/215/1 92/72/1 68/74/1
f 67/75/6 128/140/35 66/76/35
f 70/78/36 67/75/6 65/77/6
f 71/80/37 70/78/36 68/79/36
f 127/84/20 128/229/20 67/230/20
f 67/230/20 70/231/20 71/232/20
f 71/232/20 72/233/20 73/234/20
f 73/234/20 78/235/20 79/236/20
f 79/236/20 80/237/20 81/238/20
f 81/238/20 86/239/20 79/236/20
f 86/239/20 87/240/20 79/236/20
f 87/240/20 88/241/20 89/242/20
f 89/242/20 94/243/20 95/82/20
f 95/82/20 96/244/20 97/245/20
f 97/245/20 102/246/20 103/247/20
f 103/247/20 104/248/20 105/249/20
f 105/249/20 110/250/20 111/83/20
f 111/83/20 112/251/20 119/252/20
f 112/251/20 113/253/20 119/252/20
f 113/253/20 118/254/20 119/252/20
f 119/252/20 120/255/20 121/256/20
f 121/256/20 126/257/20 127/84/20
f 127/84/20 67/230/20 71/232/20
f 71/232/20 73/234/20 127/84/20
f 73/234/20 79/236/20 127/84/20
f 87/240/20 89/242/20 79/236/20
f 89/242/20 95/82/20 79/236/20
f 95/82/20 97/245/20 103/247/20
f 103/247/20 105/249/20 95/82/20
f 105/249/20 111/83/20 95/82/20
f 119/252/20 121/256/20 111/83/20
f 121/256/20 127/84/20 111/83/20
f 127/84/20 79/236/20 95/82/20
f 72/85/38 71/80/37 69/81/37
f 73/87/39 72/85/38 74/86/38
f 78/89/40 73/87/39 75/88/39
f 77/91/41 79/93/41 78/89/40
f 82/92/42 80/258/42 79/93/41
f 81/94/12 80/258/42 82/92/42
f 86/96/43 81/94/12 83/95/12
f 85/98/44 87/100/44 86/96/43
f 90/99/45 88/102/45 87/100/44
f 91/101/46 89/259/46 88/102/45
f 94/103/47 89/259/46 91/101/46
f 95/105/48 94/103/47 92/104/47
f 96/107/49 95/105/48 93/106/48
f 97/109/3 96/107/49 98/108/49
f 102/111/50 97/109/3 99/110/3
f 103/113/51 102/111/50 100/112/50
f 104/115/52 103/113/51 101/114/51
f 105/117/53 104/115/52 106/116/52
f 110/119/54 105/117/53 107/118/53
f 111/121/55 110/119/54 108/120/54
f 112/123/56 111/121/55 109/122/55
f 113/125/28 112/123/56 114/124/56
f 118/127/57 113/260/28 115/128/28
f 119/130/58 118/127/57 116/129/57
f 120/132/59 119/130/58 117/131/58
f 121/134/60 120/132/59 122/133/59
f 126/136/61 121/134/60 123/135/60
f 127/138/62 126/136/61 124/137/61
f 128/140/35 127/138/62 125/139/62
