# Blender 4.1.1
# www.blender.org
mtllib PlayerLeftArm.mtl
o leftArm
v 0.405625 -0.783217 -0.133230
v 0.048971 0.122491 -0.133230
v 0.405625 -0.783217 0.133230
v 0.048971 0.122491 0.133230
v 0.102064 -0.902822 -0.133230
v -0.035151 -0.091257 -0.133230
v 0.102064 -0.902822 0.133230
v -0.035151 -0.091257 0.133230
vn 0.9305 0.3664 -0.0000
vn -0.0000 -0.0000 1.0000
vn -0.9860 -0.1667 -0.0000
vn -0.0000 -0.0000 -1.0000
vn 0.3666 -0.9304 -0.0000
vn -0.9305 0.3662 -0.0000
vt 0.375000 0.000000
vt 0.625000 0.000000
vt 0.625000 0.250000
vt 0.375000 0.250000
vt 0.625000 0.500000
vt 0.375000 0.500000
vt 0.625000 0.750000
vt 0.375000 0.750000
vt 0.625000 1.000000
vt 0.375000 1.000000
vt 0.125000 0.500000
vt 0.125000 0.750000
vt 0.875000 0.500000
vt 0.875000 0.750000
s 0
usemtl マテリアル.001
f 1/1/1 2/2/1 4/3/1 3/4/1
f 3/4/2 4/3/2 8/5/2 7/6/2
f 7/6/3 8/5/3 6/7/3 5/8/3
f 5/8/4 6/7/4 2/9/4 1/10/4
f 3/11/5 7/6/5 5/8/5 1/12/5
f 8/5/6 4/13/6 2/14/6 6/7/6
