# Blender 4.1.1
# www.blender.org
mtllib PlayerHead.mtl
o head
v 0.364067 0.154819 -0.284692
v 0.364067 0.707788 -0.284692
v 0.364067 0.154819 0.284692
v 0.364067 0.707788 0.284692
v -0.364067 0.154819 -0.284692
v -0.364067 0.707788 -0.284692
v -0.364067 0.154819 0.284692
v -0.364067 0.707788 0.284692
vn 1.0000 -0.0000 -0.0000
vn -0.0000 -0.0000 1.0000
vn -1.0000 -0.0000 -0.0000
vn -0.0000 -0.0000 -1.0000
vn -0.0000 -1.0000 -0.0000
vn -0.0000 1.0000 -0.0000
vt 0.612468 0.376120
vt 0.432977 0.196629
vt 0.617797 0.011810
vt 0.797287 0.191301
vt 0.989135 0.989134
vt 0.735296 0.989135
vt 0.735296 0.654887
vt 0.989134 0.654887
vt 0.191300 0.797287
vt 0.011810 0.617796
vt 0.196629 0.432977
vt 0.376120 0.612468
vt 0.797287 0.560939
vt 0.560939 0.797287
vt 0.011810 0.248158
vt 0.248158 0.011810
s 0
usemtl マテリアル.003
f 1/1/1 2/2/1 4/3/1 3/4/1
f 3/5/2 4/6/2 8/7/2 7/8/2
f 7/9/3 8/10/3 6/11/3 5/12/3
f 5/12/4 6/11/4 2/2/4 1/1/4
f 3/13/5 7/14/5 5/12/5 1/1/5
f 8/15/6 4/16/6 2/2/6 6/11/6
